<?xml version="1.0" encoding="utf-8"?>
<!-- Generator: Adobe Illustrator 19.1.1, SVG Export Plug-In . SVG Version: 6.00 Build 0)  -->
<svg version="1.1" id="Calque_1" xmlns="http://www.w3.org/2000/svg" xmlns:xlink="http://www.w3.org/1999/xlink" x="0px" y="0px"
	 viewBox="0 0 413 38.1" enable-background="new 0 0 413 38.1" xml:space="preserve">
<g>
	<g>
		<path fill="#23569F" d="M35.2,31c-1.3-0.3-1.1-1-3.1-1c-1.9,0-1.8,1.2-4,1.2c-2.2,0-1.9-1.2-4.2-1.2c-1.8,0-2,1.2-3.8,1.2
			c-3.1,0-2-1.2-4.5-1.2c-1.8,0-1.9,1.2-4.1,1.2c-2,0-2.3-1.2-4.1-1.2c-1.3,0-1.5,0.7-3.1,1c0.4,0.5,0.9,1,1.4,1.5h27.9
			C34.3,32,34.8,31.5,35.2,31"/>
		<path fill="#23569F" d="M31.9,34.1c-2.1-0.2-1.8-1.2-4.2-1.2c-2,0-1.8,1.2-3.9,1.2c-2.2,0-1.7-1.2-4-1.2c-1.7,0-2.4,1.2-4.2,1.2
			c-2.7,0-2.1-1.2-4-1.2c-1.7,0-1.9,1.1-3.7,1.2c0.6,0.5,1.3,0.9,2,1.3h20.1C30.6,35,31.3,34.5,31.9,34.1"/>
		<path fill="#23569F" d="M15.6,35.8c-1.3,0-1.7,0.6-2.6,1c2.1,0.8,4.5,1.2,6.9,1.2c2.3,0,4.6-0.4,6.6-1.1c-0.9-0.3-0.9-1.1-2.7-1.1
			c-1.8,0-2,1.2-3.8,1.2C17,37,18.1,35.8,15.6,35.8"/>
		<path fill="#23569F" d="M39.1,23.5c-0.7,0.9-1.8,1.6-3,1.6c-2.5,0-2.3-1.2-4.3-1.2c-0.1,0-0.2,0-0.3,0V24c0,0.7-0.1,1.5-0.4,2.4
			h6.9C38.6,25.5,38.9,24.5,39.1,23.5"/>
		<path fill="#23569F" d="M8.1,23.9c-0.1,0-0.2,0-0.3,0c-2.2,0-1.4,1.2-4.6,1.2c-0.6,0-1.8-0.5-2.5-1.1c0.2,0.8,0.5,1.6,0.9,2.4h6.9
			c-0.3-0.9-0.4-1.7-0.4-2.4V23.9"/>
		<path fill="#23569F" d="M18.3,25.3c-0.1,0.4-0.2,0.8-0.3,1.1h3.8c-0.1-0.3-0.2-0.7-0.3-1.1H18.3"/>
		<path fill="#23569F" d="M37.7,27c-1.7,0.3-1.8,1.1-4.4,1.1c-1.5,0-2.1-0.3-2.6-0.6c-0.4,0.7-0.9,1.4-1.7,1.8h7.3
			C36.8,28.6,37.3,27.9,37.7,27"/>
		<path fill="#23569F" d="M22.3,27.8c-0.3-0.5-1.2-0.8-2.6-0.8c-1.1,0-2,0.3-2.4,0.8c-0.4,0.5-0.9,1.3-1.6,1.7h8
			C23.3,29,22.6,28.3,22.3,27.8"/>
		<path fill="#23569F" d="M9.1,27.7c-0.5,0.2-1,0.4-1.9,0.4c-2.1,0-2.1-1.2-3.8-1.2c-0.7,0-1.1,0.2-1.5,0.4c0.4,0.7,0.8,1.4,1.2,2.1
			h7.5C10,29,9.5,28.4,9.1,27.7"/>
		<path fill="#FFDD14" d="M0,17.9c0,0.3,0,0.6,0,1v0c0,1.4,0.1,2.7,0.4,4h7.7v-4.7L0,17.9"/>
		<path fill="#FFDD14" d="M39.6,16.5c-0.2-1.6-0.6-3.2-1.2-4.7l-6.8,2.6v3L39.6,16.5"/>
		<polyline fill="#FFDD14" points="28.3,17.4 28.3,15.6 24.2,17.2 24.2,17.4 28.3,17.4 		"/>
		<path fill="#FFDD14" d="M1.4,11.8c-0.6,1.5-1,3.1-1.2,4.7l8,0.9v-3L1.4,11.8"/>
		<path fill="#FFDD14" d="M39.7,17.9l-8.1,0.3v4.7h7.7c0.3-1.3,0.4-2.6,0.4-4v0C39.8,18.5,39.7,18.2,39.7,17.9"/>
		<polyline fill="#FFDD14" points="15.3,17.4 15.3,17.1 11.4,15.6 11.4,17.4 15.3,17.4 		"/>
		<path fill="#FFDD14" d="M31.3,10.2c0,0,0.5,0.4,0.5,0.4s-0.4,0.5-0.5,0.6c0.1,0.1,0.5,0.6,0.5,0.6s-0.4,0.4-0.5,0.5
			c0.1,0.1,0.3,0.4,0.3,0.4v0.7l6.2-2.8c-0.7-1.5-1.6-2.8-2.7-4l-3.6,2.9l0.2,0.3C31.8,9.7,31.4,10.1,31.3,10.2"/>
		<path fill="#FFDD14" d="M28.6,12.9c-0.1-0.1-0.4-0.5-0.4-0.5s0.4-0.5,0.5-0.6c0,0,0,0,0,0l-4.4,3.5v1.5l4.1-1.9v-1.7
			C28.3,13.2,28.6,13,28.6,12.9"/>
		<path fill="#FFDD14" d="M28.4,11c0.1-0.1,0.1-0.2,0.2-0.2c0,0-0.5-0.5-0.5-0.5s0.4-0.5,0.5-0.6c-0.1-0.2-0.9-1.2-0.9-1.2h3.1
			L31,8.6c1.2-1.1,2.3-2.1,3.2-3c-1.2-1.2-2.5-2.2-4-3.1l-6,9.4v2.9C25.5,13.7,27,12.3,28.4,11"/>
		<path fill="#FFDD14" d="M24.2,6.1v4.6L29,1.8c-1.5-0.7-3-1.3-4.7-1.6L22.9,6c0.2,0,0.5,0.1,0.8,0.1H24.2"/>
		<path fill="#FFDD14" d="M8.4,12.4c-0.1-0.1-0.5-0.5-0.5-0.5s0.4-0.5,0.5-0.6c-0.1-0.1-0.5-0.6-0.5-0.6s0.4-0.4,0.5-0.4
			C8.3,10.1,8,9.7,8,9.7l0.2-0.3L4.6,6.6c-1.1,1.2-2,2.6-2.7,4l6.2,2.8v-0.7C8.1,12.8,8.3,12.5,8.4,12.4"/>
		<path fill="#FFDD14" d="M11.1,11.8C11.1,11.8,11.1,11.8,11.1,11.8c0.1,0.1,0.4,0.6,0.4,0.6s-0.4,0.5-0.4,0.5
			c0.1,0.1,0.3,0.3,0.3,0.3v1.7l3.9,1.8v-1.6L11.1,11.8"/>
		<path fill="#FFDD14" d="M11.9,8.5c0,0-0.7,1-0.9,1.2c0.1,0.1,0.5,0.6,0.5,0.6s-0.4,0.4-0.5,0.5c0,0,0.1,0.1,0.1,0.1
			c1.4,1.3,2.8,2.6,4.1,3.8v-3.1L9.5,2.5c-1.5,0.9-2.8,1.9-4,3.1c0.9,0.9,2.1,1.9,3.2,3l0.1-0.1H11.9"/>
		<path fill="#FFDD14" d="M15.8,1.7l-0.4-1.5c-1.7,0.4-3.2,0.9-4.7,1.6l4.5,8.5V3.7C15.3,3,15.5,2.3,15.8,1.7"/>
		<path fill="#914D17" d="M17.8,23.7H15l-1.6,1.5C13.4,25.2,16.6,25.7,17.8,23.7"/>
		<path fill="#914D17" d="M21.9,23.7h2.8l1.6,1.5C26.3,25.2,23.1,25.7,21.9,23.7"/>
		<rect x="11.9" y="22.2" fill="#914D17" width="16" height="0.7"/>
		<path fill="#914D17" d="M23.7,6.4c-2.1,0-3.4-1.1-3.4-2.9c0-2,2.6-2.8,2.6-2.8l0-0.5c0,0-0.8-0.1-3.2-0.1c-2.7,0-3.9,1.9-3.9,3.7
			v11.6l8.2,2.2V6.4H23.7 M23.4,16.9c-0.5-0.1-7-1.9-7.3-2V3.7c0-1.2,0.7-3.2,3.4-3.2c1,0,1.7,0,2.2,0.1c-0.9,0.4-2.1,1.4-2.1,2.9
			c0,2,1.4,3.3,3.7,3.4V16.9z"/>
		<path fill="#914D17" d="M14.9,18.3h-0.5l-0.6,0.5l0.1-0.2c0-0.4-0.2-0.4-0.4-0.4h-0.1c-0.1,0-0.4,0-0.4,0.4l0.1,0.2l-0.6-0.5h-0.4
			l0.7,1.4l-0.7,1.6h0.7l0.5-0.8h0.4l0.5,0.8h0.7l-0.7-1.6L14.9,18.3"/>
		<path fill="#914D17" d="M18.1,18.3h-0.5l-0.5,0.5l0.1-0.2c0-0.4-0.3-0.4-0.4-0.4h-0.1c-0.1,0-0.4,0-0.4,0.4l0.1,0.2l-0.5-0.5h-0.5
			l0.7,1.4l-0.7,1.6H16l0.5-0.8h0.4l0.5,0.8H18l-0.7-1.6L18.1,18.3"/>
		<path fill="#914D17" d="M21.2,18.3h-0.5l-0.5,0.5l0.1-0.2c0-0.4-0.2-0.4-0.4-0.4h-0.1c-0.1,0-0.4,0-0.4,0.4l0.1,0.2l-0.6-0.5h-0.5
			l0.7,1.4l-0.7,1.6h0.7l0.5-0.8h0.4l0.5,0.8h0.7l-0.7-1.6L21.2,18.3"/>
		<path fill="#914D17" d="M24.4,18.3H24l-0.5,0.5l0-0.2c0-0.4-0.3-0.4-0.4-0.4H23c-0.1,0-0.4,0-0.4,0.4l0.1,0.2l-0.5-0.5h-0.5
			l0.7,1.4l-0.7,1.6h0.7l0.5-0.8h0.4l0.5,0.8h0.7l-0.7-1.6L24.4,18.3"/>
		<path fill="#914D17" d="M27.6,18.3h-0.5l-0.5,0.5l0-0.2c0-0.4-0.3-0.4-0.4-0.4h-0.1c-0.1,0-0.4,0-0.4,0.4l0,0.2l-0.5-0.5h-0.5
			l0.7,1.4l-0.7,1.6h0.7l0.5-0.8h0.4l0.5,0.8h0.7l-0.7-1.6L27.6,18.3"/>
		<path fill="#914D17" d="M14.1,25.7c-2.1,0-3.3-1.3-3.3-2.1V13.4L10.4,13l0.5-0.6l-0.5-0.5l0.5-0.6l-0.5-0.6l0.5-0.5l-0.5-0.6
			L10.8,9H9.2L8.7,9.7l0.5,0.6l-0.5,0.4l0.5,0.6l-0.5,0.6l0.5,0.5L8.7,13V24c0,0,0,5.5,4.6,5.5c4.2,0,4.8-4.5,4.8-5.5
			C17.3,25.1,16.2,25.7,14.1,25.7 M13.3,29.1c-3.4,0-3.9-3.4-3.9-5.2V13.8h1v9.8c0,1.2,1.5,2.4,3.4,2.5c2.3,0.1,3.2-0.4,3.8-0.9
			C17.3,26,16.4,29.1,13.3,29.1"/>
		<path fill="#914D17" d="M30.6,10.3L31,9.7L30.6,9h-1.7l0.5,0.6l-0.5,0.6l0.5,0.5l-0.5,0.6l0.5,0.6l-0.5,0.5l0.5,0.6l-0.5,0.5v10.2
			c0,0.8-1.2,2.1-3.3,2.1c-2.1,0-3.2-0.6-4-1.6c0,1,0.6,5.5,4.8,5.5C31,29.5,31,24,31,24V13l-0.5-0.6l0.5-0.5l-0.5-0.6l0.5-0.6
			L30.6,10.3 M30.3,23.9c0,1.9-0.5,5.2-3.9,5.2c-3,0-4-3.2-4.2-4c0.6,0.5,1.5,1,3.8,0.9c1.9-0.1,3.4-1.3,3.4-2.5v-9.8h1V23.9z"/>
		<path fill="#E11417" d="M9.4,13.8v10.1c0,1.9,0.5,5.2,3.9,5.2c3.1,0,4-3.2,4.2-4c-0.6,0.5-1.5,1-3.8,0.9c-1.9-0.1-3.4-1.3-3.4-2.5
			v-9.8H9.4"/>
		<path fill="#E11417" d="M30.3,13.8v10.1c0,1.9-0.5,5.2-3.9,5.2c-3,0-4-3.2-4.2-4c0.6,0.5,1.5,1,3.8,0.9c1.9-0.1,3.4-1.3,3.4-2.5
			v-9.8H30.3"/>
		<path fill="#E11417" d="M19.7,3.4c0-1.6,1.2-2.5,2.1-2.9c-0.5,0-1.2-0.1-2.2-0.1c-2.7,0-3.4,2-3.4,3.2V15c0.3,0.1,6.7,1.8,7.3,2
			V6.8C21.1,6.7,19.7,5.5,19.7,3.4"/>
	</g>
</g>
<g>
	<path fill="#FFFFFF" d="M58.7,28.6V10.1h6.8c2.2,0,4,0.7,5.5,2.1c1.5,1.4,2.2,3.2,2.2,5.5V21c0,2.2-0.7,4-2.2,5.5
		c-1.5,1.4-3.3,2.1-5.5,2.1H58.7z M63,13.4v11.9h2.5c1,0,1.8-0.4,2.4-1.2c0.6-0.8,0.9-1.8,0.9-3.1v-3.4c0-1.2-0.3-2.3-0.9-3.1
		c-0.6-0.8-1.4-1.2-2.4-1.2H63z"/>
	<path fill="#FFFFFF" d="M86.5,20.7H80v4.6h7.8v3.3H75.7V10.1h12.1v3.3H80v4h6.5V20.7z"/>
	<path fill="#FFFFFF" d="M99.9,23L99.9,23l4.3-12.9h5.7v18.5h-4.3V16.7l-0.1,0l-4.1,11.9h-2.9l-4-11.7l-0.1,0v11.7h-4.3V10.1h5.6
		L99.9,23z"/>
	<path fill="#FFFFFF" d="M122.7,25h-5.5l-1.1,3.6h-4.5l6-18.5h2.3v0l0,0h2.3l6,18.5h-4.5L122.7,25z M118.2,21.7h3.5l-1.7-5.7h-0.1
		L118.2,21.7z"/>
	<path fill="#FFFFFF" d="M133.9,21.5v7.1h-4.3V10.1h6.4c2.1,0,3.8,0.5,5.1,1.5c1.3,1,1.9,2.3,1.9,4.1c0,1-0.3,1.8-0.8,2.5
		c-0.5,0.7-1.2,1.2-2.2,1.7c1.1,0.3,1.9,0.9,2.4,1.6s0.7,1.7,0.7,2.8v1.2c0,0.5,0.1,1,0.2,1.7c0.1,0.6,0.4,1.1,0.7,1.3v0.3h-4.4
		c-0.3-0.3-0.6-0.7-0.7-1.4s-0.2-1.3-0.2-1.9v-1.1c0-0.9-0.2-1.6-0.7-2c-0.5-0.5-1.1-0.7-2-0.7H133.9z M133.9,18.2h2.2
		c0.9,0,1.5-0.2,2-0.6s0.7-1,0.7-1.7c0-0.8-0.2-1.4-0.7-1.8s-1.1-0.7-2-0.7h-2.1V18.2z"/>
	<path fill="#FFFFFF" d="M160.4,22.3L160.4,22.3c0.1,2.2-0.5,3.8-1.8,4.9c-1.2,1.1-3,1.6-5.2,1.6c-2.3,0-4.1-0.7-5.5-2.1
		s-2.1-3.2-2.1-5.5v-3.9c0-2.3,0.7-4.1,2-5.5s3.1-2.1,5.3-2.1c2.3,0,4.2,0.5,5.4,1.6s1.9,2.7,1.9,4.8l0,0.1h-4.2
		c0-1.1-0.2-1.9-0.7-2.4s-1.3-0.7-2.4-0.7c-1,0-1.7,0.4-2.2,1.2c-0.5,0.8-0.8,1.8-0.8,3.1v3.9c0,1.3,0.3,2.3,0.9,3.1
		c0.6,0.8,1.4,1.2,2.4,1.2c1,0,1.7-0.2,2.1-0.7c0.4-0.5,0.7-1.3,0.7-2.5H160.4z"/>
	<path fill="#FFFFFF" d="M178.2,28.6h-4.3v-7.4h-6.8v7.4h-4.3V10.1h4.3v7.7h6.8v-7.7h4.3V28.6z"/>
	<path fill="#FFFFFF" d="M192,20.7h-6.5v4.6h7.8v3.3h-12.1V10.1h12.1v3.3h-7.8v4h6.5V20.7z"/>
	<path fill="#FFFFFF" d="M205.2,23.7c0-0.7-0.2-1.2-0.6-1.5s-1.2-0.7-2.3-1.1c-2.3-0.7-4-1.5-5.1-2.4c-1.1-0.8-1.7-2.1-1.7-3.6
		c0-1.5,0.6-2.8,1.9-3.8s2.9-1.4,4.9-1.4c2.1,0,3.8,0.5,5.1,1.5s1.9,2.4,1.9,4.2l0,0.1h-4.2c0-0.9-0.2-1.5-0.7-1.9s-1.2-0.6-2.1-0.6
		c-0.8,0-1.4,0.2-1.8,0.6s-0.7,0.9-0.7,1.4c0,0.5,0.2,1,0.7,1.3c0.5,0.3,1.3,0.7,2.6,1.2c2.1,0.6,3.8,1.4,4.9,2.3s1.7,2.2,1.7,3.8
		c0,1.6-0.6,2.9-1.9,3.8c-1.3,0.9-3,1.4-5.1,1.4c-2.1,0-3.9-0.5-5.3-1.5c-1.5-1-2.2-2.5-2.1-4.7l0-0.1h4.2c0,1.1,0.3,1.8,0.8,2.3
		c0.5,0.5,1.3,0.7,2.4,0.7c0.9,0,1.6-0.2,2-0.5S205.2,24.2,205.2,23.7z"/>
	<path fill="#FFFFFF" d="M219.6,22.3h-7.5v-3.3h7.5V22.3z"/>
	<path fill="#FFFFFF" d="M232.5,23.7c0-0.7-0.2-1.2-0.6-1.5s-1.2-0.7-2.3-1.1c-2.3-0.7-4-1.5-5.1-2.4c-1.1-0.8-1.7-2.1-1.7-3.6
		c0-1.5,0.6-2.8,1.9-3.8s2.9-1.4,4.9-1.4c2.1,0,3.8,0.5,5.1,1.5s1.9,2.4,1.9,4.2l0,0.1h-4.2c0-0.9-0.2-1.5-0.7-1.9s-1.2-0.6-2.1-0.6
		c-0.8,0-1.4,0.2-1.8,0.6S227,14.5,227,15c0,0.5,0.2,1,0.7,1.3c0.5,0.3,1.3,0.7,2.6,1.2c2.1,0.6,3.8,1.4,4.9,2.3s1.7,2.2,1.7,3.8
		c0,1.6-0.6,2.9-1.9,3.8c-1.3,0.9-3,1.4-5.1,1.4c-2.1,0-3.9-0.5-5.3-1.5c-1.5-1-2.2-2.5-2.1-4.7l0-0.1h4.2c0,1.1,0.3,1.8,0.8,2.3
		c0.5,0.5,1.3,0.7,2.4,0.7c0.9,0,1.6-0.2,2-0.5S232.5,24.2,232.5,23.7z"/>
	<path fill="#FFFFFF" d="M243.6,28.6h-4.3V10.1h4.3V28.6z"/>
	<path fill="#FFFFFF" d="M256.6,23L256.6,23l4.3-12.9h5.7v18.5h-4.3V16.7l-0.1,0l-4.1,11.9h-2.9l-4-11.7l-0.1,0v11.7h-4.3V10.1h5.6
		L256.6,23z"/>
	<path fill="#FFFFFF" d="M273.8,22.2v6.3h-4.3V10.1h7.1c2.2,0,3.9,0.6,5.2,1.7s1.9,2.6,1.9,4.4s-0.6,3.3-1.9,4.4s-3,1.7-5.2,1.7
		H273.8z M273.8,18.9h2.8c0.9,0,1.6-0.3,2.1-0.8s0.7-1.2,0.7-2c0-0.8-0.2-1.5-0.7-2c-0.5-0.5-1.2-0.8-2.1-0.8h-2.8V18.9z"/>
	<path fill="#FFFFFF" d="M290.4,25.3h7.9v3.3h-12.2V10.1h4.3V25.3z"/>
	<path fill="#FFFFFF" d="M305.1,28.6h-4.3V10.1h4.3V28.6z"/>
	<path fill="#FFFFFF" d="M319.4,21.1h-6.8v7.4h-4.3V10.1h12.4v3.3h-8.1v4.4h6.8V21.1z"/>
	<path fill="#FFFFFF" d="M327.4,28.6h-4.3V10.1h4.3V28.6z"/>
	<path fill="#FFFFFF" d="M341.4,20.7h-6.5v4.6h7.8v3.3h-12.1V10.1h12.1v3.3h-7.8v4h6.5V20.7z"/>
	<path fill="#FFFFFF" d="M355.9,20.7h-6.5v4.6h7.8v3.3h-12.1V10.1h12.1v3.3h-7.8v4h6.5V20.7z"/>
	<path fill="#FFFFFF" d="M369.2,23.7c0-0.7-0.2-1.2-0.6-1.5s-1.2-0.7-2.3-1.1c-2.3-0.7-4-1.5-5.1-2.4c-1.1-0.8-1.7-2.1-1.7-3.6
		c0-1.5,0.6-2.8,1.9-3.8s2.9-1.4,4.9-1.4c2.1,0,3.8,0.5,5.1,1.5s1.9,2.4,1.9,4.2l0,0.1h-4.2c0-0.9-0.2-1.5-0.7-1.9s-1.2-0.6-2.1-0.6
		c-0.8,0-1.4,0.2-1.8,0.6s-0.7,0.9-0.7,1.4c0,0.5,0.2,1,0.7,1.3c0.5,0.3,1.3,0.7,2.6,1.2c2.1,0.6,3.8,1.4,4.9,2.3s1.7,2.2,1.7,3.8
		c0,1.6-0.6,2.9-1.9,3.8c-1.3,0.9-3,1.4-5.1,1.4c-2.1,0-3.9-0.5-5.3-1.5c-1.5-1-2.2-2.5-2.1-4.7l0-0.1h4.2c0,1.1,0.3,1.8,0.8,2.3
		c0.5,0.5,1.3,0.7,2.4,0.7c0.9,0,1.6-0.2,2-0.5S369.2,24.2,369.2,23.7z"/>
	<path fill="#FFDB10" d="M380.3,28.6h-4.3V25h4.3V28.6z"/>
	<path fill="#FFDB10" d="M388,22.2v6.3h-4.3V10.1h7.1c2.2,0,3.9,0.6,5.2,1.7s1.9,2.6,1.9,4.4s-0.6,3.3-1.9,4.4s-3,1.7-5.2,1.7H388z
		 M388,18.9h2.8c0.9,0,1.6-0.3,2.1-0.8s0.7-1.2,0.7-2c0-0.8-0.2-1.5-0.7-2c-0.5-0.5-1.2-0.8-2.1-0.8H388V18.9z"/>
	<path fill="#FFDB10" d="M411.3,21.1h-6.8v7.4h-4.3V10.1h12.4v3.3h-8.1v4.4h6.8V21.1z"/>
</g>
</svg>
